<svg xmlns="http://www.w3.org/2000/svg" width="262" height="52.01" viewBox="0 0 262 52.01">
  <g id="footer-logo" transform="translate(-67.369 -414.117)">
    <g id="Group_3210" data-name="Group 3210" transform="translate(147.738 461.326)">
      <path id="Path_3271" data-name="Path 3271" d="M332.789,570.226h.653l1.024,3.98,1.131-3.98h.687l1.077,3.966,1.03-3.966h.66l-1.36,4.694h-.687l-1.091-3.778-1.132,3.778-.68.007Z" transform="translate(-332.789 -570.165)" fill="#fff"/>
      <path id="Path_3272" data-name="Path 3272" d="M361.775,570.708h-1.912v1.569h1.711v.505h-1.711V574.4h1.912v.5H359.25v-4.7h2.525Z" transform="translate(-351.238 -570.149)" fill="#fff"/>
      <path id="Path_3273" data-name="Path 3273" d="M384.322,570.226v4.2h1.643v.5h-2.256v-4.694Z" transform="translate(-368.29 -570.165)" fill="#fff"/>
      <path id="Path_3274" data-name="Path 3274" d="M398.475,574.842a2.4,2.4,0,1,1,2.357-2.4A2.316,2.316,0,0,1,398.475,574.842Zm0-.532a1.87,1.87,0,1,0-1.731-1.865A1.714,1.714,0,0,0,398.475,574.31Z" transform="translate(-376.941 -570.04)" fill="#fff"/>
      <path id="Path_3275" data-name="Path 3275" d="M420.286,570.226h.646l-1.771,4.694h-.707l-1.771-4.694h.653l1.475,4.047Z" transform="translate(-391.281 -570.165)" fill="#fff"/>
      <path id="Path_3276" data-name="Path 3276" d="M439.02,570.708h-1.912v1.569h1.71v.505h-1.71V574.4h1.912v.5h-2.525v-4.7h2.525Z" transform="translate(-405.093 -570.149)" fill="#fff"/>
      <path id="Path_3277" data-name="Path 3277" d="M460,570.226h3.178v.5H461.9v4.2h-.613v-4.2H460Z" transform="translate(-421.48 -570.165)" fill="#fff"/>
      <path id="Path_3278" data-name="Path 3278" d="M478.143,574.842a2.4,2.4,0,1,1,2.357-2.4A2.316,2.316,0,0,1,478.143,574.842Zm0-.532a1.87,1.87,0,1,0-1.731-1.865A1.714,1.714,0,0,0,478.143,574.31Z" transform="translate(-432.486 -570.04)" fill="#fff"/>
      <path id="Path_3279" data-name="Path 3279" d="M508.247,574.826c-.943,0-1.609-.525-1.623-1.3h.653a.869.869,0,0,0,.969.781c.593,0,.943-.336.943-.781,0-1.266-2.54-.458-2.54-2.2,0-.774.627-1.3,1.556-1.3a1.4,1.4,0,0,1,1.556,1.205h-.673a.851.851,0,0,0-.909-.68c-.505-.014-.9.249-.9.755,0,1.212,2.532.458,2.532,2.2A1.406,1.406,0,0,1,508.247,574.826Z" transform="translate(-453.987 -570.024)" fill="#fff"/>
      <path id="Path_3280" data-name="Path 3280" d="M526.205,570.708h-1.912v1.569H526v.505h-1.71V574.4h1.912v.5H523.68v-4.7h2.525Z" transform="translate(-465.878 -570.149)" fill="#fff"/>
      <path id="Path_3281" data-name="Path 3281" d="M540.161,570.226c1.1,0,1.63.613,1.63,1.38a1.324,1.324,0,0,1-1.118,1.347l1.179,1.966h-.734L540,573h-.741v1.919h-.613v-4.694Zm0,.5h-.9v1.778h.9c.694,0,1-.377,1-.9S540.861,570.731,540.161,570.731Z" transform="translate(-476.312 -570.165)" fill="#fff"/>
      <path id="Path_3282" data-name="Path 3282" d="M558.1,570.226h.647l-1.771,4.694h-.707l-1.77-4.694h.652l1.475,4.047Z" transform="translate(-487.366 -570.165)" fill="#fff"/>
      <path id="Path_3283" data-name="Path 3283" d="M576.836,570.708h-1.912v1.569h1.71v.505h-1.71V574.4h1.912v.5h-2.525v-4.7h2.525Z" transform="translate(-501.178 -570.149)" fill="#fff"/>
      <path id="Path_3284" data-name="Path 3284" d="M597.48,570.226h.68l1.158,2.377,1.158-2.377h.681l-1.529,2.922v1.771h-.613v-1.771Z" transform="translate(-517.332 -570.165)" fill="#fff"/>
      <path id="Path_3285" data-name="Path 3285" d="M616.913,574.842a2.4,2.4,0,1,1,2.357-2.4A2.316,2.316,0,0,1,616.913,574.842Zm0-.532a1.87,1.87,0,1,0-1.731-1.865A1.714,1.714,0,0,0,616.913,574.31Z" transform="translate(-529.237 -570.04)" fill="#fff"/>
      <path id="Path_3286" data-name="Path 3286" d="M636.3,570.226h.613v2.97a1.073,1.073,0,0,0,1.158,1.232c.694,0,1.152-.37,1.152-1.232v-2.97h.613v2.963a1.768,1.768,0,1,1-3.535,0Z" transform="translate(-544.397 -570.165)" fill="#fff"/>
      <path id="Path_3287" data-name="Path 3287" d="M665.069,574.96a.418.418,0,1,1,.4-.417A.411.411,0,0,1,665.069,574.96Zm-.357-4.734h.66l-.074,3.367h-.512Z" transform="translate(-564.164 -570.165)" fill="#fff"/>
    </g>
    <path id="Path_3288" data-name="Path 3288" d="M318.174,491.049a9.878,9.878,0,0,1,2.908.437,7.819,7.819,0,0,1,2.545,1.311,6.6,6.6,0,0,1,1.806,2.185,6.53,6.53,0,0,1,.683,3.059v6.5a6.461,6.461,0,0,1-.7,3.1,6.6,6.6,0,0,1-1.824,2.166,7.718,7.718,0,0,1-2.565,1.273,10.508,10.508,0,0,1-5.738.038,7.034,7.034,0,0,1-2.432-1.2,6.031,6.031,0,0,1-1.71-2.09,6.692,6.692,0,0,1-.646-3.059v-5.775h10.3v-.874a1.928,1.928,0,0,0-.911-1.729,3.7,3.7,0,0,0-2.052-.588,4.492,4.492,0,0,0-1.767.36,2.717,2.717,0,0,0-1.311,1.121l-3.458-2.508a6.1,6.1,0,0,1,1.387-1.768,7.678,7.678,0,0,1,1.748-1.14,8.158,8.158,0,0,1,1.9-.627A9.592,9.592,0,0,1,318.174,491.049Zm-2.7,13.642a1.707,1.707,0,0,0,.8,1.539,3.229,3.229,0,0,0,1.786.513,3.582,3.582,0,0,0,1.881-.513,1.711,1.711,0,0,0,.855-1.577V502.9h-5.32Z" transform="translate(-169.51 -53.637)" fill="#05ddd7"/>
    <path id="Path_3289" data-name="Path 3289" d="M380.082,491.049a13.019,13.019,0,0,1,2.775.381v4.256a5.814,5.814,0,0,0-1.483-.19h-.266a5.231,5.231,0,0,0-1.691.342,3.176,3.176,0,0,0-1.273.874,2.069,2.069,0,0,0-.494,1.406v13h-5.282V498.042a6.486,6.486,0,0,1,.7-3.078,6.649,6.649,0,0,1,1.806-2.185,7.9,7.9,0,0,1,2.488-1.292A9.026,9.026,0,0,1,380.082,491.049Z" transform="translate(-212.646 -53.637)" fill="#05ddd7"/>
    <path id="Path_3290" data-name="Path 3290" d="M422.474,492.306h5.662l-7.03,19.684h-4.978l-6.993-19.684h5.625l2.964,9.918.836,5.092h.114l.837-5.092Z" transform="translate(-238.28 -54.513)" fill="#05ddd7"/>
    <path id="Path_3291" data-name="Path 3291" d="M474.4,505.261a6.647,6.647,0,0,1,.589-2.926,5.7,5.7,0,0,1,1.557-2,6.283,6.283,0,0,1,2.242-1.14,9.5,9.5,0,0,1,2.6-.36,10.6,10.6,0,0,1,3.5.608v-1.406a2.362,2.362,0,0,0-.912-2.147,3.834,3.834,0,0,0-2.128-.589,5.392,5.392,0,0,0-2.261.532,6.04,6.04,0,0,0-1.882,1.292l-2.583-2.774a9.225,9.225,0,0,1,3.287-2.508,10.06,10.06,0,0,1,3.818-.8,9.887,9.887,0,0,1,2.87.418,7.2,7.2,0,0,1,2.47,1.292,6.607,6.607,0,0,1,1.748,2.184,6.78,6.78,0,0,1,.665,3.1v12.008a25.55,25.55,0,0,1-3.668,1.045,18.366,18.366,0,0,1-3.742.4q-4.181,0-6.175-1.691A5.649,5.649,0,0,1,474.4,505.261Zm7.942-2.547a3.154,3.154,0,0,0-2.223.665,2.272,2.272,0,0,0-.7,1.729,2.1,2.1,0,0,0,.741,1.691,3.576,3.576,0,0,0,2.337.627,8.918,8.918,0,0,0,2.242-.266v-3.99a6.134,6.134,0,0,0-1.1-.323A6.393,6.393,0,0,0,482.339,502.715Z" transform="translate(-283.78 -53.637)" fill="#05ddd7"/>
    <path id="Path_3292" data-name="Path 3292" d="M545.5,491.049a12.753,12.753,0,0,1,3.211.4,8.2,8.2,0,0,1,2.736,1.254,6.289,6.289,0,0,1,1.919,2.223,7,7,0,0,1,.722,3.306v12.882h-5.244V498.421a2.232,2.232,0,0,0-.931-1.995,3.62,3.62,0,0,0-2.07-.627,4.352,4.352,0,0,0-2.166.532v14.782H538.4V492.76a17.543,17.543,0,0,1,3.458-1.254A14.986,14.986,0,0,1,545.5,491.049Z" transform="translate(-328.403 -53.637)" fill="#05ddd7"/>
    <path id="Path_3293" data-name="Path 3293" d="M608.857,502.231H608.4a5.961,5.961,0,0,1-2.965-.949,5.5,5.5,0,0,1-1.957-2.413,9.456,9.456,0,0,1-.7-3.857V477.873h4.865l.38,4.37h3.5v4.826h-3.5v7.9a2.347,2.347,0,0,0,.95,2.242,3.135,3.135,0,0,0,1.482.3,8.523,8.523,0,0,0,1.635-.189v4.332A10.24,10.24,0,0,1,608.857,502.231Z" transform="translate(-373.287 -44.45)" fill="#05ddd7"/>
    <g id="Group_3211" data-name="Group 3211" transform="translate(258.88 437.412)">
      <path id="Path_3294" data-name="Path 3294" d="M699.84,547.841a1.816,1.816,0,1,1,.532,1.292A1.758,1.758,0,0,1,699.84,547.841Z" transform="translate(-699.84 -529.373)" fill="#ffa42c"/>
      <path id="Path_3295" data-name="Path 3295" d="M732.636,493.1a7.9,7.9,0,0,0-1.957.246,5.267,5.267,0,0,0-1.71.76,4.017,4.017,0,0,0-1.2,1.292,3.662,3.662,0,0,0-.455,1.881v7.98a3.655,3.655,0,0,0,.455,1.88,4.012,4.012,0,0,0,1.2,1.292,5.229,5.229,0,0,0,1.71.76,7.872,7.872,0,0,0,1.957.247,7.154,7.154,0,0,0,3.21-.742,3.6,3.6,0,0,0,1.957-2.3l1.939.874a5.348,5.348,0,0,1-1.121,1.863,6.533,6.533,0,0,1-1.691,1.311,8.484,8.484,0,0,1-2.052.778,9.5,9.5,0,0,1-4.959-.133,7.325,7.325,0,0,1-2.394-1.2,6.141,6.141,0,0,1-1.691-2,5.786,5.786,0,0,1-.646-2.793v-7.676a5.786,5.786,0,0,1,.646-2.793,6.141,6.141,0,0,1,1.691-2,7.325,7.325,0,0,1,2.394-1.2,9.535,9.535,0,0,1,2.717-.4,9.329,9.329,0,0,1,3.895.836,6.094,6.094,0,0,1,2.831,2.546l-1.786,1.064a3.968,3.968,0,0,0-2.013-1.8A7.323,7.323,0,0,0,732.636,493.1Z" transform="translate(-717.512 -491.049)" fill="#ffa42c"/>
      <path id="Path_3296" data-name="Path 3296" d="M783.04,497.471a5.786,5.786,0,0,1,.646-2.793,6.145,6.145,0,0,1,1.691-2,7.62,7.62,0,0,1,2.394-1.215,9.247,9.247,0,0,1,2.755-.418,9.068,9.068,0,0,1,2.736.418,7.675,7.675,0,0,1,2.375,1.215,6.15,6.15,0,0,1,1.69,2,5.786,5.786,0,0,1,.646,2.793v7.6a5.9,5.9,0,0,1-.646,2.812,6.087,6.087,0,0,1-1.69,2.014,7.369,7.369,0,0,1-2.375,1.2,9.476,9.476,0,0,1-2.736.4,9.664,9.664,0,0,1-2.755-.4,7.324,7.324,0,0,1-2.394-1.2,6.082,6.082,0,0,1-1.691-2.014,5.9,5.9,0,0,1-.646-2.812Zm7.487-4.369a7.682,7.682,0,0,0-1.939.246,5.515,5.515,0,0,0-1.71.76,4.059,4.059,0,0,0-1.235,1.311,3.714,3.714,0,0,0-.475,1.938v7.79a3.718,3.718,0,0,0,.475,1.939,4.256,4.256,0,0,0,1.235,1.33,5.249,5.249,0,0,0,1.71.779,7.654,7.654,0,0,0,1.939.247,7.51,7.51,0,0,0,1.9-.247,5.263,5.263,0,0,0,1.71-.779,4.279,4.279,0,0,0,1.236-1.33,3.732,3.732,0,0,0,.475-1.939v-7.79a3.728,3.728,0,0,0-.475-1.938,4.08,4.08,0,0,0-1.236-1.311,5.531,5.531,0,0,0-1.71-.76A7.537,7.537,0,0,0,790.527,493.1Z" transform="translate(-757.847 -491.049)" fill="#ffa42c"/>
      <path id="Path_3297" data-name="Path 3297" d="M853.7,491.049a10,10,0,0,1,3.477.608,6.036,6.036,0,0,1,2.755,2.052,6.372,6.372,0,0,1,2.66-2.033,8.189,8.189,0,0,1,3.077-.627,9.742,9.742,0,0,1,2.812.4,6.777,6.777,0,0,1,2.356,1.235,5.934,5.934,0,0,1,1.615,2.072,6.6,6.6,0,0,1,.588,2.869v13.49H870.88v-13.49a4.606,4.606,0,0,0-.437-2.109,3.976,3.976,0,0,0-1.14-1.387,4.67,4.67,0,0,0-1.634-.78,7.472,7.472,0,0,0-1.919-.246,6.177,6.177,0,0,0-1.634.228,5.481,5.481,0,0,0-1.52.665,3.711,3.711,0,0,0-1.121,1.1,2.737,2.737,0,0,0-.437,1.539v14.478h-2.09V496.787a2.808,2.808,0,0,0-.494-1.653,4.016,4.016,0,0,0-1.273-1.159,5.9,5.9,0,0,0-1.767-.665,9.779,9.779,0,0,0-2.014-.209,9.036,9.036,0,0,0-2.3.284,4.87,4.87,0,0,0-1.767.818v16.91h-2.167V492.721a13.724,13.724,0,0,1,3-1.2A13.176,13.176,0,0,1,853.7,491.049Z" transform="translate(-802.557 -491.049)" fill="#ffa42c"/>
    </g>
    <path id="Path_3298" data-name="Path 3298" d="M315.334,558.812c.089,0,.116.068.111.154-.011.186-.037.373-.042.557-.025.813-.109,1.622-.136,2.434a4.721,4.721,0,0,1-.031.541c-.065.436-.055.876-.091,1.314-.03.372-.074.743-.083,1.117a.106.106,0,0,1-.108.119,1.225,1.225,0,0,1-.27.009c-.458-.074-.922-.059-1.382-.1-.151-.014-.221-.048-.209-.21.029-.4.053-.791.085-1.185.051-.649.056-1.3.11-1.947.016-.192.018-.385.03-.578.032-.5.059-1.008.1-1.512a2.716,2.716,0,0,1,.086-.809C314.124,558.695,314.727,558.8,315.334,558.812Zm-1.251,5.884a.351.351,0,0,0,.287-.319.308.308,0,0,0-.312-.243.281.281,0,0,0,.025.561Z" transform="translate(-171.318 -100.812)" fill="#05ddd7"/>
    <path id="Path_3299" data-name="Path 3299" d="M233.757,549.986c.3-.475.626-.423,1.03-.212a17.939,17.939,0,0,1,2.185,1.44c.834.6,1.659,1.219,2.488,1.83.048.035.089.084.164.067.071-.074.033-.169.033-.255a1.073,1.073,0,0,1,.061-.444c.06-.135,0-.2-.1-.266-.62-.412-1.218-.852-1.81-1.3A20.359,20.359,0,0,0,235.152,549a1.584,1.584,0,0,0-1.095-.211c-.425.089-.548.258-.491.687A1.439,1.439,0,0,0,233.757,549.986Z" transform="translate(-115.864 -93.876)" fill="#ffa42c"/>
    <path id="Path_3300" data-name="Path 3300" d="M241.433,550.17a11.294,11.294,0,0,1-3.3-2.558,1.635,1.635,0,0,0-.212.016.44.44,0,0,0-.342.2c.06.111.172.1.256.138a10,10,0,0,1,1.752,1.109c.572.416,1.125.859,1.7,1.277.415.3.847.586,1.268.882.074.051.131.074.207.008a1.432,1.432,0,0,1,.5-.276.118.118,0,0,0,.038-.022A12.936,12.936,0,0,1,241.433,550.17Z" transform="translate(-118.673 -93.073)" fill="#ffa42c"/>
    <path id="Path_3301" data-name="Path 3301" d="M256.383,483.036a6.89,6.89,0,0,0-2-2.562,9.305,9.305,0,0,0-2.92-1.54,32.291,32.291,0,0,0-3.4-.876c-.584-.124-1.153-.241-1.715-.358a5.992,5.992,0,0,1-1.482-.5,3.016,3.016,0,0,1-1.044-.818,2.059,2.059,0,0,1-.4-1.328v-.037a2.357,2.357,0,0,1,.387-1.2,2.551,2.551,0,0,1,.905-.832,4.513,4.513,0,0,1,1.3-.482,7.752,7.752,0,0,1,1.518-.146,5.211,5.211,0,0,1,2.468.606,5.617,5.617,0,0,1,2.015,1.935l4.6-3.073a10.034,10.034,0,0,0-4.088-3.65,11.692,11.692,0,0,0-4.993-1.1,12.681,12.681,0,0,0-3.533.5,10,10,0,0,0-3.066,1.46,8.139,8.139,0,0,0-2.219,2.431,7.29,7.29,0,0,0-.985,3.365v.226a7.813,7.813,0,0,0,.722,3.533,7.121,7.121,0,0,0,1.912,2.511,8.8,8.8,0,0,0,2.738,1.518,16.255,16.255,0,0,0,3.139.759c.686.1,1.35.219,1.993.343a6.422,6.422,0,0,1,1.671.555,3.212,3.212,0,0,1,1.124.927,2.039,2.039,0,0,1,.379,1.255,2.414,2.414,0,0,1-1.255,2.241,4.96,4.96,0,0,1-2.621.686h-.19a7.9,7.9,0,0,1-3.154-.781,5.763,5.763,0,0,1-2.511-2.183l-4.219,3.226a11.08,11.08,0,0,0,4.219,3.862,11.541,11.541,0,0,0,1.569.657c.1.035.2.066.3.1a5.327,5.327,0,0,1,.8-.113c.285-.029.569-.051.847-.066.577-.044,1.124-.081,1.672-.161a6.059,6.059,0,0,0,.876-.2,5.1,5.1,0,0,0,.671-.285,6.922,6.922,0,0,1,.672-.285c.423-.153.84-.314,1.241-.5a6.556,6.556,0,0,1,2.57-.613,2.976,2.976,0,0,1,.38.022l.131.022a4.958,4.958,0,0,1,.9.127c.054-.047.111-.091.163-.141a7.984,7.984,0,0,0,1.467-1.737,7.5,7.5,0,0,0,1.1-3.343v-.606A7.812,7.812,0,0,0,256.383,483.036Z" transform="translate(-118.584 -36.925)" fill="#05ddd7"/>
    <path id="Path_3302" data-name="Path 3302" d="M258.218,559.337a9.364,9.364,0,0,0,.087-1.15c.046-.594.09-1.188.116-1.782.021-.469.078-.936.082-1.407,0-.258.038-.516.06-.774s.013-.25-.23-.293a11.975,11.975,0,0,1-2.154-.588,21.816,21.816,0,0,1-2.837-1.419,4.271,4.271,0,0,0-1.876-.535c-.156-.008-.308-.045-.467-.042a5.846,5.846,0,0,0-2.282.554c-.423.187-.855.355-1.291.512-.471.169-.9.437-1.38.582a6.888,6.888,0,0,1-.981.231c-.849.126-1.706.153-2.559.228a3.49,3.49,0,0,0-1.454.392.848.848,0,0,0-.432.726,1.515,1.515,0,0,0,1.358,1.593c.518.083,1.036.144,1.559.176a14.571,14.571,0,0,0,2.411-.048,9.562,9.562,0,0,0,1.106-.173,3.233,3.233,0,0,0,1.334-.61c.024-.018.046-.039.071-.055.045-.029.092-.039.126.013s0,.078-.035.108a2.343,2.343,0,0,1-.648.422,5.537,5.537,0,0,1-1.656.411,19.394,19.394,0,0,1-2.587.079,6.88,6.88,0,0,1-2.132-.285,1.531,1.531,0,0,1-.842-.7,1.677,1.677,0,0,0-.486-.516c-1.166-.874-2.331-1.75-3.535-2.569a8.388,8.388,0,0,0-1.153-.709,1.927,1.927,0,0,0-.3-.117.381.381,0,0,0-.472.365,1.2,1.2,0,0,0,.333.889,18.344,18.344,0,0,0,2.165,2.177c.593.53,1.2,1.047,1.822,1.542a32.173,32.173,0,0,0,3.562,2.554,5.176,5.176,0,0,0,1.971.716,5.579,5.579,0,0,0,1.88-.137c.472-.1.933-.235,1.4-.344.668-.155,1.341-.286,2.011-.426a17.87,17.87,0,0,1,2.683-.363,17.549,17.549,0,0,1,2.135.019,11.684,11.684,0,0,1,3.448.723A.669.669,0,0,1,258.218,559.337Z" transform="translate(-116.686 -95.677)" fill="#ffa42c"/>
    <g id="Group_3212" data-name="Group 3212" transform="translate(198.288 414.117)">
      <path id="Path_3303" data-name="Path 3303" d="M565.122,453.711a3.588,3.588,0,0,1,1.83,2.9v.068h4.965q.009-.863.019-1.725.009-.844.018-1.688a6.651,6.651,0,0,0-.1-1.968,3.72,3.72,0,0,0-1.055-1.509,16.23,16.23,0,0,0-1.347-1.188c-.627-.5-1.277-.979-1.947-1.423,0,0-.026-.013-.026-.011-1.472-1.08-2.967-2.131-4.445-3.2-.187-.136-.381-.264-.58-.384-1.912-1.155-2.666-1.1-4.041.631a60.082,60.082,0,0,0-3.859,5.357,2.319,2.319,0,0,1-2.629,1.306,3.185,3.185,0,0,0-.723-.027v2.936a25.764,25.764,0,0,0,3.291-.048,2.556,2.556,0,0,0,1.455-.964c.94-1.17,1.771-2.428,2.717-3.751C560.83,450.61,562.894,452.289,565.122,453.711Z" transform="translate(-535.62 -434.113)" fill="#05ddd7"/>
      <path id="Path_3304" data-name="Path 3304" d="M551.5,415.662a.862.862,0,0,0-.187-.051,11.339,11.339,0,0,0-2.256.092c-1.361-1.654-1.976-1.9-4.11-1.26-2.14.623-2.521,1.164-2.765,3.292a11.343,11.343,0,0,0-1.944,1.15.856.856,0,0,0-.129.144,1.03,1.03,0,0,0,.833,1.573c.046,0,.093,0,.139,0a2.787,2.787,0,0,0,1.316-.517,14.755,14.755,0,0,1,7.758-2.293,2.783,2.783,0,0,0,1.386-.281c.04-.023.078-.049.116-.076A1.03,1.03,0,0,0,551.5,415.662Z" transform="translate(-527.762 -414.117)" fill="#05ddd7"/>
      <path id="Path_3305" data-name="Path 3305" d="M558.427,430.439a3.951,3.951,0,0,0-2.353-.259,12.893,12.893,0,0,0-4.521,1.616,1.05,1.05,0,0,0-.591,1.308,3.971,3.971,0,0,0,2.923,2.977A3.772,3.772,0,0,0,558,434.969a3.693,3.693,0,0,0,.878-4.156A.849.849,0,0,0,558.427,430.439Z" transform="translate(-535.415 -425.267)" fill="#05ddd7"/>
      <path id="Path_3306" data-name="Path 3306" d="M513.825,461.831V458.9c-2.756.649-2.909-1.522-3.613-3.034-.848-1.821-.9-1.839-2.754-.883a1.955,1.955,0,0,1-1.557-.177c-1.229-.715-1.864-.6-2.42.656-.292.658-.555,1.327-.824,1.995a2.775,2.775,0,0,1-.821,1.256c-.578.426-1.815-.013-2.065.837a1.326,1.326,0,0,0-.024.518,3.608,3.608,0,0,0,.345,1.185,1.177,1.177,0,0,0,.258.372c.345.307.815.2,1.235.186.534-.021,1.078.005,1.613.009q1.753.012,3.506.014C509.078,461.835,511.451,461.831,513.825,461.831Z" transform="translate(-499.734 -442.17)" fill="#05ddd7"/>
    </g>
    <g id="Group_3213" data-name="Group 3213" transform="translate(67.369 430.185)">
      <path id="Path_3307" data-name="Path 3307" d="M67.375,480.585q0-6.528,0-13.057c0-.255.045-.349.331-.348q5.107.017,10.215.007a9.811,9.811,0,0,1,4.322.823,8.82,8.82,0,0,1,5.162,6.9,9.131,9.131,0,0,1-1.674,7.147,8.687,8.687,0,0,1-6.672,3.609c-1.932.127-3.867.033-5.8.047-.275,0-.363.053-.362.349.013,2.546,0,5.092.014,7.639,0,.265-.069.323-.326.321q-2.442-.019-4.885,0c-.257,0-.328-.057-.327-.322Q67.383,487.142,67.375,480.585Zm5.525-3.939c0,1.194,0,2.388,0,3.581,0,.177.026.267.236.264,1.766-.022,3.533.054,5.3-.036a3.788,3.788,0,0,0,3.492-4.771,3.717,3.717,0,0,0-3.5-2.859c-1.765-.049-3.532-.019-5.3-.033-.219,0-.23.1-.229.271C72.9,474.257,72.9,475.451,72.9,476.645Z" transform="translate(-67.369 -467.18)" fill="#05ddd7"/>
      <path id="Path_3308" data-name="Path 3308" d="M178.032,500.928c0-1.064-.012-2.129,0-3.193a6.242,6.242,0,0,1,4.01-6.018,8.568,8.568,0,0,1,8.623.691,6.009,6.009,0,0,1,2.774,5.179c.023,2.167.017,4.335.006,6.5a6.175,6.175,0,0,1-4.094,6.093,8.832,8.832,0,0,1-8.518-.7,5.882,5.882,0,0,1-2.787-5.014c-.037-1.179-.007-2.361-.007-3.542Zm10.249-.087c0-1.122,0-2.244,0-3.366a1.551,1.551,0,0,0-.847-1.447,3.28,3.28,0,0,0-3.244-.081,1.645,1.645,0,0,0-1,1.622c.016,1,0,1.993,0,2.989,0,1.17.006,2.341,0,3.511a1.751,1.751,0,0,0,.561,1.407,2.849,2.849,0,0,0,2.719.692,2.147,2.147,0,0,0,1.807-2.338Q188.281,502.336,188.281,500.841Z" transform="translate(-144.52 -483.697)" fill="#05ddd7"/>
      <path id="Path_3309" data-name="Path 3309" d="M148.124,495.572a5.76,5.76,0,0,0-2.865-.006,3.884,3.884,0,0,0-1.042.428,2.3,2.3,0,0,0-1.2,2.107c.011,4.064.005,8.128,0,12.192,0,.444.051.376-.39.377-1.5,0-3,0-4.5.006-.208,0-.283-.04-.282-.267q.011-6.256,0-12.511a6.663,6.663,0,0,1,5.158-6.51,9.515,9.515,0,0,1,4.93-.01c.1.025.179.041.179.174C148.123,492.885,148.124,494.219,148.124,495.572Z" transform="translate(-116.512 -483.827)" fill="#05ddd7"/>
    </g>
    <g id="Group_3214" data-name="Group 3214" transform="translate(240.074 438.903)">
      <path id="Path_3310" data-name="Path 3310" d="M647.138,514.683a18.726,18.726,0,0,1-2.427-.17q-1.3-.173-2.55-.445a22.794,22.794,0,0,1-2.411-.667,11.92,11.92,0,0,1-2.018-.873l2.5-4.412a20.157,20.157,0,0,0,3.593,1.5,11.108,11.108,0,0,0,3.18.513q1.711,0,1.71-.855,0-.445-.684-.787a14.8,14.8,0,0,0-2.6-.821,30.122,30.122,0,0,1-3.215-1.026,8.017,8.017,0,0,1-2.087-1.146A3.775,3.775,0,0,1,639,504.1a4.384,4.384,0,0,1-.342-1.8,5.717,5.717,0,0,1,.565-2.531,6.034,6.034,0,0,1,1.59-2.018,7.326,7.326,0,0,1,2.446-1.318,9.964,9.964,0,0,1,3.1-.461,16.189,16.189,0,0,1,3.882.513,23.856,23.856,0,0,1,4.223,1.5l-2.5,4.139a26.889,26.889,0,0,0-3.182-1.282,8.189,8.189,0,0,0-2.427-.394,2.827,2.827,0,0,0-1.215.223.735.735,0,0,0-.461.7.76.76,0,0,0,.137.461,1.3,1.3,0,0,0,.478.359,6.649,6.649,0,0,0,.941.359q.6.189,1.488.393a26.914,26.914,0,0,1,3.454,1.078,9.007,9.007,0,0,1,2.24,1.231,3.888,3.888,0,0,1,1.2,1.506,4.85,4.85,0,0,1,.359,1.933,5.213,5.213,0,0,1-2.1,4.378A9.216,9.216,0,0,1,647.138,514.683Z" transform="translate(-637.732 -495.973)" fill="#05ddd7"/>
    </g>
  </g>
</svg>
